<svg width="157" height="17" viewBox="0 0 157 17" fill="none" xmlns="http://www.w3.org/2000/svg">
<g clip-path="url(#clip0_79_104)">
<path d="M0 7.09486C0.159578 6.53029 0.282322 5.95317 0.491001 5.41368C0.996191 3.96092 1.90297 2.68918 3.10136 1.75274C4.29974 0.816302 5.73824 0.255392 7.24237 0.138039C8.18756 0.0188512 8.31645 0.138038 8.31645 1.11664V5.94062C8.31204 6.17252 8.34523 6.40356 8.41465 6.62438C9.64218 2.51553 12.3673 0.38896 16.5715 0.106672V16.2849C14.6521 16.4005 12.7626 15.7582 11.2932 14.4908C9.82265 13.2634 8.77696 11.5854 8.31033 9.70446V16.3351C6.80016 16.3813 5.30884 15.9828 4.014 15.1871C2.99592 14.5834 2.11981 13.7588 1.44747 12.7714C0.775135 11.784 0.322924 10.6578 0.122741 9.47236C0.0911283 9.33779 0.0501167 9.20572 0 9.07715V7.09486Z" fill="white"/>
<path d="M90.7076 0C91.3889 0.194465 92.0947 0.338743 92.7576 0.595939C94.9303 1.41771 96.1026 3.10516 96.6611 5.34465C96.7532 5.7273 96.6611 5.97195 96.2069 5.97195C95.3354 5.94059 94.4577 5.90922 93.5923 5.83394C93.4695 5.83394 93.2854 5.62694 93.2547 5.48893C92.6839 2.93579 89.3696 2.39003 87.5958 3.48155C87.1179 3.78005 86.703 4.17288 86.3753 4.63709C86.0475 5.1013 85.8136 5.62759 85.687 6.18524C85.2593 7.84206 85.3364 9.59284 85.908 11.2037C86.1749 11.9554 86.6586 12.6067 87.2953 13.0715C87.932 13.5363 88.6917 13.7928 89.474 13.807C90.2429 13.8779 91.0145 13.7037 91.6827 13.3084C92.3509 12.913 92.8829 12.3158 93.2056 11.5989C93.2793 11.4421 93.445 11.21 93.5739 11.2037C94.6173 11.2037 95.6668 11.2037 96.7593 11.2037C96.7972 12.0023 96.582 12.7921 96.1455 13.4557C95.585 14.4002 94.8176 15.1989 93.9038 15.7889C92.9901 16.3789 91.9548 16.7441 90.8795 16.8557L89.8545 17H89.4985C88.8541 16.9059 88.1912 16.8557 87.559 16.6989C84.4902 15.9587 82.8208 13.8258 82.0965 10.8085C81.6521 8.87368 81.7478 6.85024 82.3727 4.96826C83.2443 2.1893 85.3004 0.721402 88.0255 0.131734L88.541 0H90.7076Z" fill="white"/>
<path d="M157 11.2538C156.727 11.2965 156.453 11.3238 156.177 11.3354C153.87 11.3354 151.556 11.3354 149.248 11.3354C148.745 11.3354 148.456 11.5298 148.634 12.0505C148.767 12.574 148.974 13.0749 149.248 13.5372C149.997 14.7103 152.931 14.8483 153.673 13.28C153.737 13.188 153.821 13.112 153.917 13.0577C154.014 13.0033 154.122 12.9721 154.232 12.9664C154.968 12.9664 155.705 13.0667 156.435 13.1608C156.853 13.211 156.963 13.6376 156.699 14.1708C156.343 14.9783 155.719 15.6314 154.938 16.0151C154.108 16.4023 153.23 16.6704 152.329 16.8118C150.968 17.0611 149.566 16.911 148.284 16.3789C146.253 15.4003 145.351 13.6439 145.117 11.4797C144.963 10.5184 145.02 9.53404 145.286 8.59846C145.551 7.66289 146.018 6.79979 146.652 6.07228C148.45 4.10254 150.74 3.82025 153.195 4.50402C155.373 5.13132 156.533 6.65567 156.938 8.86379C156.966 8.93845 157.001 9.00995 157.043 9.07708L157 11.2538ZM148.524 9.03944C148.704 9.08161 148.886 9.11095 149.07 9.12726C150.365 9.12726 151.654 9.12726 152.949 9.12726C153.692 9.12726 153.827 8.85752 153.563 8.12357C153.51 7.97101 153.436 7.82725 153.342 7.697C153.019 7.26883 152.582 6.94436 152.084 6.76202C151.585 6.57969 151.047 6.54713 150.531 6.66822C149.987 6.78107 149.495 7.07501 149.132 7.50404C148.769 7.93308 148.555 8.47303 148.524 9.03944Z" fill="white"/>
<path d="M48.1188 16.9999C47.8426 16.9623 47.5725 16.9121 47.3025 16.8808C46.075 16.7427 44.4423 15.3878 44.6019 13.7442C44.6112 13.5834 44.6112 13.4221 44.6019 13.2612C44.5467 12.4421 44.7951 11.6318 45.2977 10.9913C45.8004 10.3509 46.5205 9.92729 47.3148 9.80474C48.5423 9.56009 49.7698 9.44091 50.9666 9.22135C51.9364 9.0457 52.1942 8.78224 52.1942 8.18002C52.1831 7.82097 52.0484 7.47742 51.8137 7.21001C51.579 6.94259 51.2594 6.76848 50.9114 6.7184C50.4353 6.59052 49.9326 6.61187 49.4686 6.77966C49.0045 6.94745 48.6005 7.25395 48.309 7.65936C48.1776 7.8529 47.977 7.98584 47.7505 8.02947C46.9758 8.04105 46.2011 8.00544 45.4305 7.92283C44.9518 7.87264 44.9641 7.5088 45.1114 7.13869C45.3856 6.44384 45.8309 5.83324 46.4041 5.36612C46.9773 4.899 47.6588 4.59122 48.3827 4.47264C50 4.07283 51.6975 4.17772 53.256 4.77375C53.9277 5.01566 54.5133 5.45727 54.9376 6.04187C55.362 6.62647 55.6056 7.32737 55.6373 8.05456C55.6373 10.7645 55.6373 13.4745 55.6373 16.2095C55.6286 16.3318 55.6122 16.4533 55.5883 16.5734C54.6247 16.5734 53.6795 16.5734 52.7281 16.5734C52.6054 16.5734 52.4274 16.3287 52.3721 16.1594C52.3153 15.8893 52.2865 15.6138 52.2862 15.3376C51.8627 15.714 51.5067 16.0653 51.1262 16.3726C50.4081 16.9435 49.5304 16.9247 48.6712 17.0564L48.1188 16.9999ZM52.1328 10.9653C51.2244 11.1158 50.359 11.2225 49.512 11.4169C49.1073 11.5208 48.7246 11.6994 48.3827 11.9439C48.1694 12.0794 48.0034 12.2804 47.9086 12.5181C47.8138 12.7559 47.795 13.0181 47.8549 13.2675C47.8663 13.5039 47.9519 13.7304 48.0989 13.9133C48.2458 14.0963 48.4465 14.2262 48.6712 14.2837C49.6532 14.4719 50.6659 14.5785 51.4945 13.8132C52.323 13.0479 52.3476 12.1007 52.1205 10.9653H52.1328Z" fill="white"/>
<path d="M32.5417 6.75605H39.6429V2.88557C39.6429 2.19553 39.6429 1.49922 39.6429 0.809186C39.6429 0.445348 39.7595 0.263428 40.1094 0.263428C40.987 0.263428 41.8647 0.263428 42.7424 0.263428C42.8529 0.263428 43.0186 0.457891 43.0615 0.589625C43.0911 0.797637 43.0911 1.00892 43.0615 1.21693C43.0615 6.14756 43.0615 11.0782 43.1045 16.0088C43.1045 16.4605 42.9572 16.6361 42.5276 16.6361C41.8095 16.6361 41.0914 16.6361 40.3733 16.6361C39.8884 16.6361 39.7165 16.4605 39.7227 15.9524C39.7227 14.1394 39.7227 12.3203 39.7227 10.5073C39.7227 9.93649 39.5447 9.76085 39.0169 9.76712C37.0446 9.79221 35.0745 9.80476 33.1063 9.80476C32.6829 9.80476 32.4926 9.94904 32.4926 10.4321C32.4926 12.245 32.4926 14.0579 32.4926 15.8708V16.5985C31.4246 16.5985 30.4181 16.5985 29.4238 16.5985C29.2949 16.5985 29.0924 16.1907 29.0801 15.9712C29.0801 15.0177 29.0801 14.0893 29.0801 13.0981C29.0801 9.08335 29.0801 5.06859 29.0801 1.05383C29.0801 0.426529 29.2703 0.257154 29.8227 0.282246C30.3751 0.307338 31.0195 0.282246 31.6149 0.282246C32.5171 0.282246 32.5171 0.282245 32.5233 1.24202V6.8376L32.5417 6.75605Z" fill="white"/>
<path d="M73.2033 16.5295C72.1599 16.5295 71.1718 16.5295 70.1898 16.5295C70.0547 16.5295 69.9013 16.2912 69.8092 16.1343C69.7172 15.9775 69.8092 15.896 69.8092 15.7705C69.8092 10.8838 69.8092 5.9908 69.8092 1.09781C69.8092 0.470502 69.9381 0.194485 70.5887 0.238397C71.2393 0.282308 72.0188 0.276035 72.7369 0.238397C73.2095 0.238397 73.234 0.495592 73.234 0.865703C73.234 3.06755 73.1972 5.25685 73.1849 7.46497C73.1849 7.88526 73.1849 8.30556 73.1849 8.92032C73.4001 8.77389 73.6052 8.6125 73.7987 8.43729C74.8666 7.18268 75.9407 5.97198 76.9902 4.71736C77.1304 4.53437 77.3121 4.38904 77.5195 4.29395C77.727 4.19886 77.954 4.15686 78.1809 4.17161C78.9604 4.17161 79.7399 4.17161 80.5132 4.17161C80.7642 4.1864 81.0142 4.21572 81.262 4.25943C80.8262 4.79892 80.4764 5.23803 80.1143 5.6646C79.1691 6.76866 78.2423 7.88526 77.2603 8.95796C77.1646 9.0328 77.086 9.12808 77.03 9.23716C76.974 9.34624 76.9419 9.46649 76.9361 9.58952C76.9303 9.71255 76.9507 9.83541 76.9961 9.94952C77.0415 10.0636 77.1107 10.1662 77.1989 10.2502C78.5246 12.0819 79.8013 13.9576 81.0963 15.8144C81.219 15.9901 81.3234 16.1783 81.5075 16.4417C81.2923 16.4812 81.0751 16.5084 80.8569 16.5233C79.8995 16.5233 78.942 16.5233 77.9845 16.5233C77.828 16.5338 77.6718 16.4979 77.5346 16.4201C77.3974 16.3422 77.2852 16.2256 77.2112 16.0842C76.2599 14.6539 75.2901 13.2425 74.2897 11.7746C73.6759 12.2011 73.1726 12.6214 73.2095 13.4683C73.234 14.4908 73.2033 15.4568 73.2033 16.5295Z" fill="white"/>
<path d="M68.373 8.69442C67.4401 8.69442 66.5317 8.69442 65.654 8.69442C65.5514 8.67307 65.455 8.62807 65.372 8.56284C65.2891 8.49761 65.2218 8.41388 65.1753 8.31803C65.0015 7.86859 64.7011 7.48199 64.3121 7.20726C63.9231 6.93253 63.4631 6.78204 62.9903 6.77486C62.4881 6.7845 61.9999 6.94567 61.5871 7.2381C61.1743 7.53054 60.8554 7.94118 60.6703 8.4184C60.1626 9.76088 60.1758 11.2508 60.7071 12.5837C60.8729 13.0464 61.1791 13.4428 61.5811 13.7148C61.9831 13.9868 62.4597 14.1202 62.9412 14.0955C64.1687 14.0955 64.6597 13.7881 65.1262 12.6151C65.1666 12.4591 65.2611 12.3235 65.3921 12.2335C65.5231 12.1435 65.6816 12.1052 65.8381 12.1258C66.6176 12.1634 67.391 12.1258 68.1704 12.1697C68.2749 12.1904 68.3775 12.2198 68.4773 12.2575C68.4537 12.743 68.3796 13.2246 68.2563 13.694C67.9859 14.4907 67.5029 15.1942 66.862 15.7252C66.221 16.2562 65.4476 16.5934 64.629 16.6988C63.4887 16.887 62.3262 16.887 61.1858 16.6988C59.1481 16.3475 57.8777 14.9863 57.1596 13.0228C56.1898 10.3568 56.9447 7.02578 58.9149 5.41988C61.4559 3.32467 65.9179 3.78261 67.7592 6.33574C68.0328 6.65374 68.2306 7.03219 68.3371 7.44142C68.4436 7.85065 68.4559 8.27952 68.373 8.69442Z" fill="white"/>
<path d="M19.1064 13.2361C19.3154 13.2158 19.5262 13.2407 19.725 13.3094C19.9239 13.378 20.1063 13.4888 20.2604 13.6345C20.4145 13.7801 20.5368 13.9574 20.6193 14.1547C20.7017 14.3519 20.7425 14.5648 20.739 14.7793C20.7326 15.2203 20.5575 15.6412 20.2512 15.9519C19.9449 16.2626 19.5318 16.4384 19.1003 16.4416C18.7025 16.4446 18.3175 16.298 18.0187 16.0296C17.7199 15.7612 17.5281 15.3899 17.4799 14.9863C17.4544 14.7577 17.4782 14.5261 17.5496 14.3079C17.6211 14.0897 17.7385 13.8901 17.8935 13.7232C18.0486 13.5564 18.2375 13.4263 18.4471 13.3421C18.6566 13.258 18.8817 13.2218 19.1064 13.2361Z" fill="white"/>
<path d="M132.769 16.6236V14.8484L132.603 14.7794C132.49 14.8882 132.384 15.0034 132.284 15.1244C131.74 15.8482 130.989 16.3809 130.136 16.6485C129.282 16.916 128.368 16.9052 127.521 16.6174C126.688 16.4207 125.944 15.9419 125.41 15.2587C124.876 14.5754 124.584 13.7278 124.581 12.8535C124.489 10.1938 124.495 7.52143 124.458 4.85538C124.458 4.52918 124.514 4.27826 124.894 4.27826H128.129V11.5676C128.129 12.9664 128.951 13.92 130.16 13.945C130.471 13.9552 130.78 13.9012 131.069 13.7865C131.358 13.6717 131.622 13.4984 131.844 13.277C132.067 13.0557 132.243 12.7907 132.363 12.4981C132.483 12.2054 132.544 11.8911 132.542 11.5738C132.542 9.33435 132.542 7.08859 132.542 4.84911C132.542 4.43509 132.671 4.2218 133.063 4.2218C133.898 4.2218 134.733 4.2218 135.568 4.2218C135.979 4.2218 136.114 4.46645 136.138 4.84911C136.138 4.98712 136.138 5.1314 136.138 5.27568C136.138 8.81996 136.138 12.3642 136.138 15.9399C136.138 16.4856 135.954 16.6676 135.463 16.6613C134.61 16.6174 133.732 16.6236 132.769 16.6236Z" fill="white"/>
<path d="M106.487 16.5044V14.7166L106.291 14.5974C106.241 14.7242 106.179 14.846 106.107 14.9612C105.554 15.7473 104.763 16.3248 103.856 16.6039C102.949 16.883 101.978 16.848 101.092 16.5044C100.279 16.2313 99.5737 15.695 99.0843 14.9764C98.5949 14.2578 98.3476 13.3959 98.3797 12.521C98.3183 9.89885 98.349 7.27044 98.3797 4.64202C98.4006 4.53925 98.4463 4.44347 98.5128 4.36346C98.5793 4.28346 98.6644 4.22178 98.7602 4.18409C99.6133 4.14645 100.473 4.18409 101.332 4.18409C101.749 4.18409 101.731 4.47265 101.731 4.76748C101.731 6.88778 101.731 9.00807 101.731 11.1284C101.734 11.4122 101.759 11.6953 101.804 11.9752C101.849 12.5187 102.094 13.0247 102.489 13.3913C102.884 13.7579 103.401 13.9579 103.934 13.9512C104.497 13.9524 105.042 13.7504 105.473 13.3809C105.904 13.0113 106.194 12.4979 106.291 11.9313C106.343 11.3831 106.362 10.8321 106.346 10.2815C106.346 8.49368 106.346 6.69959 106.346 4.90549C106.346 4.47265 106.444 4.27818 106.905 4.27818C107.678 4.27818 108.451 4.27818 109.225 4.27818C109.587 4.27818 109.716 4.44128 109.716 4.79885C109.716 8.52505 109.716 12.2533 109.716 15.9837C109.716 16.335 109.587 16.5107 109.231 16.5107C108.347 16.4981 107.469 16.5044 106.487 16.5044Z" fill="white"/>
<path d="M123.378 6.61185C122.795 6.61185 122.304 6.61185 121.807 6.61185C121.31 6.61185 121.144 6.78123 121.144 7.23916C121.144 9.25909 121.144 11.2727 121.144 13.2927C121.167 13.4225 121.218 13.5457 121.292 13.6539C121.365 13.7622 121.461 13.853 121.572 13.9202C121.683 13.9874 121.807 14.0294 121.936 14.0434C122.064 14.0575 122.194 14.0432 122.317 14.0015C122.992 13.8384 123.114 14.2336 123.225 14.7041C123.335 15.1746 123.36 15.5071 123.452 15.9023C123.482 15.9797 123.494 16.0632 123.487 16.1461C123.479 16.229 123.453 16.309 123.41 16.3797C123.367 16.4505 123.309 16.5099 123.239 16.5534C123.17 16.5968 123.091 16.6231 123.01 16.6299C121.721 16.9548 120.364 16.8335 119.149 16.2849C118.666 16.0539 118.26 15.6827 117.982 15.2176C117.704 14.7524 117.565 14.2139 117.584 13.669C117.584 11.8561 117.584 10.0432 117.584 8.2303V7.92292C117.584 6.66831 117.584 6.66831 116.308 6.61812H115.903C115.903 5.91554 115.872 5.21296 115.933 4.52292C115.933 4.39746 116.32 4.21554 116.547 4.21554C117.775 4.21554 117.621 4.14026 117.634 3.05502C117.634 2.54691 117.634 2.04506 117.634 1.46167C118.714 1.46167 119.726 1.46167 120.733 1.46167C120.862 1.46167 121.064 1.8255 121.083 2.02624C121.126 2.65355 121.083 3.32477 121.083 4.03362C121.697 4.03362 122.224 4.06499 122.752 4.03362C123.28 4.00226 123.366 4.21554 123.366 4.62329C123.384 5.23805 123.378 5.87163 123.378 6.61185Z" fill="white"/>
<path d="M111.68 0.219604C112.613 0.219604 113.484 0.219604 114.362 0.219604C114.847 0.219604 115.006 0.388978 114.976 0.897096C114.945 2.64728 114.976 4.39746 114.976 6.15392C114.976 9.43473 114.976 12.7155 114.976 15.9964C114.976 16.448 114.878 16.6738 114.362 16.6613C113.57 16.6613 112.772 16.6613 111.981 16.6613C111.892 16.6322 111.813 16.5807 111.75 16.5116C111.686 16.4424 111.641 16.358 111.618 16.2661C111.575 15.7015 111.618 15.1244 111.618 14.5536C111.618 9.92821 111.618 5.30288 111.618 0.67754C111.643 0.552079 111.661 0.439162 111.68 0.219604Z" fill="white"/>
<path d="M141.202 16.5985C140.152 16.5985 139.158 16.5985 138.17 16.5985C138.053 16.5985 137.869 16.2723 137.863 16.0966C137.826 15.1996 137.863 14.3025 137.863 13.4055C137.863 10.5575 137.863 7.70326 137.863 4.85529C137.863 4.34717 138.017 4.15898 138.508 4.18407C139.121 4.18407 139.784 4.18407 140.422 4.18407C141.184 4.18407 141.239 4.2468 141.245 5.01839V5.84643C141.441 5.60806 141.546 5.50769 141.625 5.3885C141.956 4.92708 142.393 4.55586 142.897 4.30754C143.401 4.05921 143.957 3.94142 144.516 3.96452C144.94 3.96452 145.204 4.11507 145.191 4.59182C145.191 5.21913 145.191 5.84643 145.191 6.42356C145.191 6.8564 145.001 6.9944 144.578 6.95676C144.32 6.95676 144.062 6.95676 143.804 6.95676C143.451 6.93205 143.096 6.98328 142.764 7.10716C142.431 7.23104 142.127 7.42482 141.872 7.67601C141.617 7.9272 141.417 8.23021 141.283 8.56553C141.15 8.90084 141.086 9.26101 141.098 9.62282C141.098 11.7557 141.165 13.8885 141.208 16.0276L141.202 16.5985Z" fill="white"/>
</g>
<defs>
<clipPath id="clip0_79_104">
<rect width="157" height="17" fill="white"/>
</clipPath>
</defs>
</svg>
