<svg width="47" height="30" viewBox="0 0 47 30" fill="none" xmlns="http://www.w3.org/2000/svg">
<path d="M1.125 23.2694V5.80029H5.86759V19.448H12.9303V23.2694H1.125Z" fill="#669EFF"/>
<path d="M10.5078 23.2694V5.80029H23.0979V9.62166H15.2504V12.6242H22.4495V16.4455H15.2504V19.448H23.0637V23.2694H10.5078Z" fill="#337DFF"/>
<path d="M23.3054 23.2694H18.1875L23.9536 5.80029H30.4364L36.2025 23.2694H31.0846L27.2633 10.6111H27.1267L23.3054 23.2694ZM22.3501 16.3773H31.9718V19.9258H22.3501V16.3773Z" fill="#2266DD"/>
<path d="M31.5273 23.2694V5.80029H39.0678C40.3643 5.80029 41.4987 6.05618 42.4711 6.56798C43.4435 7.07977 44.1998 7.79912 44.7401 8.72603C45.2803 9.65294 45.5504 10.7362 45.5504 11.9759C45.5504 13.2269 45.2717 14.3102 44.7145 15.2258C44.1628 16.1413 43.3867 16.8464 42.3859 17.3412C41.3908 17.8359 40.2279 18.0833 38.8972 18.0833H34.3934V14.3984H37.9418C38.4992 14.3984 38.9739 14.3017 39.3663 14.1084C39.7643 13.9093 40.0685 13.6278 40.2789 13.2639C40.4951 12.9 40.6032 12.4706 40.6032 11.9759C40.6032 11.4755 40.4951 11.049 40.2789 10.6964C40.0685 10.3382 39.7643 10.0652 39.3663 9.87757C38.9739 9.68422 38.4992 9.58754 37.9418 9.58754H36.27V23.2694H31.5273Z" fill="#1B51B1"/>
<path d="M14.7045 26.4596H14.3047L14.7552 25.0948H15.2616L15.7121 26.4596H15.3123L15.0137 25.4706H15.0031L14.7045 26.4596ZM14.6299 25.9212H15.3816V26.1984H14.6299V25.9212ZM16.6832 25.0948V26.4596H16.3127V25.0948H16.6832ZM18.2689 26.6915C18.1232 26.6915 17.9928 26.6716 17.8777 26.6322C17.7631 26.593 17.6658 26.5358 17.5858 26.4603C17.5059 26.3847 17.4448 26.293 17.4026 26.185C17.3604 26.0771 17.3391 25.9544 17.3386 25.8172C17.3391 25.6804 17.3604 25.5553 17.4026 25.4419C17.4448 25.3282 17.5065 25.2301 17.5878 25.1475C17.6696 25.0644 17.7698 25.0002 17.8884 24.955C18.007 24.9095 18.1427 24.8868 18.2955 24.8868C18.4333 24.8868 18.5574 24.9058 18.6681 24.9435C18.7791 24.9809 18.8741 25.036 18.9527 25.1088C19.0317 25.1813 19.0921 25.2702 19.1338 25.3761C19.176 25.4817 19.197 25.6031 19.1965 25.7399C19.197 25.8332 19.1873 25.915 19.1672 25.9852C19.1471 26.0548 19.1176 26.1137 19.0786 26.1618C19.0394 26.2096 18.9915 26.247 18.9347 26.2736C18.8782 26.3003 18.8136 26.317 18.7407 26.3237C18.6754 26.3299 18.6285 26.3267 18.6001 26.3143C18.5717 26.302 18.5532 26.2841 18.5448 26.2611C18.5363 26.238 18.5297 26.2134 18.5248 26.1877H18.5168C18.5066 26.2153 18.4828 26.2393 18.4455 26.2597C18.4082 26.2802 18.3642 26.2954 18.3135 26.3057C18.2629 26.3158 18.2125 26.3192 18.1623 26.3157C18.1134 26.3121 18.0645 26.3003 18.0157 26.2804C17.9668 26.2603 17.9219 26.2303 17.881 26.1903C17.8406 26.1503 17.8082 26.0991 17.7838 26.0364C17.7593 25.9734 17.7469 25.8976 17.7464 25.8092C17.7469 25.7204 17.7591 25.6448 17.7831 25.5827C17.8075 25.5204 17.8388 25.4691 17.8771 25.4286C17.9157 25.3883 17.9572 25.3571 18.0017 25.3353C18.0465 25.3136 18.0894 25.2991 18.1303 25.292C18.184 25.2822 18.2362 25.2811 18.2869 25.2888C18.3375 25.2959 18.3806 25.3081 18.4162 25.3254C18.4517 25.3423 18.4737 25.3605 18.4822 25.38H18.4928V25.3053H18.746V25.9878C18.7469 26.0145 18.7514 26.0323 18.7594 26.0411C18.7679 26.0499 18.7776 26.0544 18.7887 26.0544C18.8095 26.0544 18.829 26.0424 18.8472 26.0184C18.866 25.994 18.8808 25.9569 18.8919 25.9071C18.9035 25.857 18.9092 25.7932 18.9086 25.7159C18.9092 25.6164 18.8962 25.5333 18.8699 25.4667C18.8442 25.3995 18.8095 25.3458 18.766 25.3053C18.7225 25.2646 18.6738 25.2338 18.6201 25.2134C18.5668 25.1925 18.5119 25.1788 18.4555 25.1721C18.3991 25.1649 18.3458 25.1614 18.2955 25.1614C18.1805 25.1614 18.0814 25.1788 17.9983 25.2134C17.9157 25.2477 17.8477 25.2948 17.7944 25.3547C17.7411 25.4142 17.7016 25.4825 17.6758 25.5592C17.6505 25.6358 17.6376 25.7163 17.6372 25.8011C17.6376 25.9011 17.652 25.9893 17.6805 26.0657C17.7093 26.1421 17.7513 26.2061 17.8064 26.2577C17.8619 26.3093 17.9301 26.3483 18.011 26.375C18.0923 26.4012 18.1854 26.4144 18.2902 26.4144C18.3431 26.4144 18.3944 26.4114 18.4441 26.4055C18.4939 26.3994 18.5397 26.3915 18.5814 26.3817C18.6232 26.3714 18.6585 26.3601 18.6874 26.3476L18.7727 26.5876C18.7447 26.6062 18.7054 26.6232 18.6547 26.6388C18.6045 26.6548 18.5463 26.6675 18.4801 26.6769C18.4144 26.6867 18.344 26.6915 18.2689 26.6915ZM18.2689 26.0411C18.32 26.0411 18.36 26.0317 18.3888 26.0132C18.4182 25.994 18.4386 25.9664 18.4502 25.9304C18.4621 25.894 18.4675 25.8501 18.4661 25.7985C18.4657 25.7594 18.4606 25.723 18.4508 25.6893C18.4415 25.6551 18.4224 25.6275 18.3935 25.6067C18.3651 25.5853 18.3218 25.5746 18.2636 25.5746C18.2151 25.5746 18.1741 25.5832 18.1403 25.6007C18.107 25.6176 18.0814 25.6427 18.0636 25.6765C18.0463 25.7099 18.0374 25.7514 18.037 25.8011C18.0374 25.842 18.0448 25.8809 18.059 25.9178C18.0736 25.9542 18.0976 25.9841 18.1309 26.0072C18.1647 26.0299 18.2107 26.0411 18.2689 26.0411ZM19.8495 26.4596V25.0948H20.4388C20.5399 25.0948 20.6287 25.1148 20.7045 25.1548C20.7805 25.1948 20.8396 25.2509 20.8818 25.3233C20.924 25.3958 20.9451 25.4804 20.9451 25.5772C20.9451 25.675 20.9233 25.7596 20.8797 25.8311C20.8368 25.9026 20.7762 25.9578 20.6979 25.9965C20.6202 26.0351 20.5294 26.0544 20.4254 26.0544H20.0736V25.7666H20.3507C20.3943 25.7666 20.4314 25.7591 20.462 25.7439C20.4932 25.7283 20.5168 25.7063 20.5333 25.678C20.5502 25.6495 20.5587 25.6159 20.5587 25.5772C20.5587 25.5382 20.5502 25.5048 20.5333 25.4774C20.5168 25.4492 20.4932 25.428 20.462 25.4134C20.4314 25.3982 20.3943 25.3907 20.3507 25.3907H20.2201V26.4596H19.8495ZM21.5502 26.4596V25.0948H21.9207V26.161H22.4726V26.4596H21.5502ZM23.446 26.4596H23.0461L23.4966 25.0948H24.0031L24.4535 26.4596H24.0538L23.7552 25.4706H23.7445L23.446 26.4596ZM23.3713 25.9212H24.123V26.1984H23.3713V25.9212ZM25.0542 26.4596V25.0948H25.4246V25.6467H25.4434L25.8538 25.0948H26.2856L25.8245 25.7026L26.2963 26.4596H25.8538L25.5473 25.9479L25.4246 26.1077V26.4596H25.0542ZM27.5821 25.5213C27.5785 25.4768 27.5618 25.4423 27.5322 25.4173C27.5027 25.3924 27.4581 25.38 27.3982 25.38C27.3599 25.38 27.3286 25.3847 27.3042 25.3941C27.2802 25.4029 27.2625 25.4151 27.2509 25.4307C27.2394 25.4462 27.2334 25.4641 27.2329 25.484C27.2319 25.5005 27.2349 25.5153 27.2415 25.5286C27.2486 25.5416 27.2597 25.5532 27.2749 25.5639C27.2899 25.5742 27.3092 25.5834 27.3329 25.5919C27.3563 25.6003 27.3843 25.608 27.4168 25.6146L27.5288 25.6386C27.6042 25.6545 27.669 25.6757 27.7226 25.7018C27.7765 25.7281 27.8204 25.7591 27.8546 25.7945C27.8889 25.8296 27.9139 25.8692 27.93 25.9131C27.9463 25.957 27.9548 26.0051 27.9553 26.0571C27.9548 26.1468 27.9324 26.2228 27.888 26.2851C27.8435 26.3472 27.7801 26.3945 27.6973 26.4269C27.6151 26.4594 27.5164 26.4755 27.4008 26.4755C27.2822 26.4755 27.1786 26.4581 27.0902 26.423C27.0024 26.3879 26.9339 26.3339 26.8851 26.2611C26.8365 26.1877 26.8121 26.094 26.8118 25.9798H27.1636C27.1659 26.0216 27.1762 26.0567 27.195 26.085C27.2135 26.1136 27.2398 26.1351 27.2736 26.1498C27.3077 26.1644 27.3485 26.1717 27.3956 26.1717C27.435 26.1717 27.4682 26.1668 27.4948 26.1571C27.5215 26.1473 27.5417 26.1336 27.5554 26.1164C27.5691 26.0991 27.5763 26.0792 27.5768 26.0571C27.5763 26.0362 27.5695 26.018 27.5562 26.0025C27.5432 25.9865 27.5219 25.9722 27.4922 25.9599C27.4624 25.9469 27.4222 25.9349 27.3715 25.9238L27.2355 25.8946C27.1146 25.8683 27.0195 25.8246 26.9497 25.7632C26.8804 25.7015 26.8459 25.6172 26.8465 25.5106C26.8459 25.4241 26.869 25.3483 26.9157 25.2834C26.9628 25.2181 27.0279 25.1672 27.1109 25.1308C27.1944 25.0944 27.2903 25.0762 27.3982 25.0762C27.5083 25.0762 27.6037 25.0946 27.684 25.1315C27.7645 25.1683 27.8264 25.2203 27.87 25.2875C27.9139 25.3541 27.9362 25.432 27.9366 25.5213H27.5821ZM28.5654 26.4596V25.0948H28.9358V25.6279H29.4264V25.0948H29.7968V26.4596H29.4264V25.9265H28.9358V26.4596H28.5654ZM30.7965 26.4596H30.3966L30.8471 25.0948H31.3536L31.804 26.4596H31.4043L31.1057 25.4706H31.095L30.7965 26.4596ZM30.7218 25.9212H31.4735V26.1984H30.7218V25.9212Z" fill="#337DFF"/>
</svg>
