<svg width="257" height="191" viewBox="0 0 257 191" fill="none" xmlns="http://www.w3.org/2000/svg">
<path d="M0.556641 187C7.45827 187.24 14.3599 187.468 21.2615 187.684C82.5141 189.601 143.767 190.573 205.019 190.599L207.276 189.804C207.948 189.264 208.619 188.724 209.291 188.184C224.613 175.855 239.874 163.451 255.075 150.971L256.309 148.394C255.888 105.945 255.014 63.4969 253.685 21.0485C253.469 14.1469 253.241 7.24526 253.001 0.343628C252.761 7.24526 252.533 14.1469 252.317 21.0485C250.989 63.4969 250.114 105.945 249.693 148.394L250.928 145.817C235.483 157.993 220.1 170.246 204.777 182.574C204.106 183.114 203.434 183.655 202.763 184.196L205.019 183.401C143.767 183.427 82.5141 184.399 21.2615 186.316C14.3599 186.532 7.45827 186.76 0.556641 187Z" fill="url(#paint0_linear_343_161)"/>
<defs>
<linearGradient id="paint0_linear_343_161" x1="230.415" y1="170.088" x2="92.7355" y2="-11.511" gradientUnits="userSpaceOnUse">
<stop stop-color="#D6001C"/>
<stop offset="1" stop-opacity="0"/>
</linearGradient>
</defs>
</svg>
