<svg width="256" height="191" viewBox="0 0 256 191" fill="none" xmlns="http://www.w3.org/2000/svg">
<path d="M255.779 3.99997C248.878 3.75998 241.976 3.53197 235.074 3.31598C173.822 1.39896 112.569 0.427139 51.3166 0.400528L49.0602 1.1956C48.3883 1.7357 47.7166 2.27596 47.045 2.81635C31.7227 15.1447 16.4615 27.549 1.26135 40.0293L0.0271912 42.6063C0.4478 85.0547 1.32237 127.503 2.65088 169.951C2.86688 176.853 3.09488 183.755 3.33487 190.656C3.57487 183.755 3.80287 176.853 4.01888 169.951C5.34738 127.503 6.22194 85.0547 6.64256 42.6063L5.4084 45.1834C20.8528 33.0068 36.2362 20.7544 51.5585 8.42598C52.2301 7.88557 52.9016 7.34503 53.573 6.80435L51.3166 7.59941C112.569 7.57281 173.822 6.601 235.074 4.68398C241.976 4.46797 248.878 4.23997 255.779 3.99997Z" fill="url(#paint0_linear_343_162)"/>
<defs>
<linearGradient id="paint0_linear_343_162" x1="31.4322" y1="21.7093" x2="151.156" y2="168.356" gradientUnits="userSpaceOnUse">
<stop stop-color="#D6001C"/>
<stop offset="1" stop-opacity="0"/>
</linearGradient>
</defs>
</svg>
